# xmcd
#
# Track frame offsets:
#	150
#	20227
#	43272
#	62442
#	81010
#	114330
#	139830
#	161692
#	182090
#	205875
#	216105
#
# Disc length: 3288 seconds
#
# Revision: 0
# Processed by: cddbd v1.5.1PL0 Copyright (c) Steve Scherf et al.
# Submitted via: dBpowerAMP V4.0
#
DISCID=9b0cd60b
DTITLE=Automatic Blues Band - It's Autom
DYEAR=1900
DGENRE=
TTITLE0=Blind Dog's Rib Joint
TTITLE1=Right Side Of The Tracks
TTITLE2=Event The Blues Won't Bother Me Tonight
TTITLE3=The Blues Is What I Got
TTITLE4=Since Your Lovin' Went Away
TTITLE5=Gotta Get Her Back
TTITLE6=It's Alright
TTITLE7=Flip Flop And Fly
TTITLE8=Help Me
TTITLE9=The Chicken Shack
TTITLE10=Serve Your Right To Suffer
EXTD=UPC 6-60355-13592-7  Not sure how many were produced. This copy was a live recording from Jambalaya's in Laingsburg MI Feb 20, 1999
EXTT0=
EXTT1=
EXTT2=
EXTT3=
EXTT4=
EXTT5=
EXTT6=
EXTT7=
EXTT8=
EXTT9=
EXTT10=
PLAYORDER=
